<?xml version="1.0" standalone="no"?>
<!DOCTYPE svg PUBLIC "-//W3C//DTD SVG 20010904//EN"
 "http://www.w3.org/TR/2001/REC-SVG-20010904/DTD/svg10.dtd">
<svg version="1.0" xmlns="http://www.w3.org/2000/svg"
 width="367.000000pt" height="367.000000pt" viewBox="0 0 367.000000 367.000000"
 preserveAspectRatio="xMidYMid meet">
<metadata>
Created by potrace 1.14, written by Peter Selinger 2001-2017
</metadata>
<g transform="translate(0.000000,367.000000) scale(0.100000,-0.100000)"
fill="#000000" stroke="none">
<path d="M1679 3666 c-2 -2 -33 -7 -69 -10 -254 -27 -565 -142 -786 -292 -126
-85 -180 -129 -280 -228 -232 -232 -387 -495 -474 -802 -53 -191 -65 -283 -64
-519 1 -141 6 -207 24 -305 123 -683 628 -1245 1291 -1435 66 -19 135 -37 152
-40 18 -3 46 -8 62 -11 73 -13 99 -15 260 -18 184 -4 265 3 420 35 415 88 794
322 1057 652 185 233 340 583 374 849 3 24 9 68 14 98 5 30 7 129 5 220 -2
146 -7 199 -31 340 -22 129 -108 366 -181 500 -35 65 -140 231 -152 240 -3 3
-32 37 -63 75 -150 185 -368 355 -601 468 -112 55 -291 121 -357 132 -19 3
-51 10 -70 15 -85 22 -187 33 -351 36 -97 1 -178 1 -180 0z"/>
</g>
</svg>
